HIERARCHY
ROOT Hips
{
  OFFSET 46.1553 84.0003 33.9447
  CHANNELS 6 Xposition Yposition Zposition Zrotation Xrotation Yrotation
  JOINT spine
  {
    OFFSET 0 6.24479 0.359107
    CHANNELS 3 Zrotation Xrotation Yrotation
    JOINT spine1
    {
      OFFSET 0 9.06941 0
      CHANNELS 3 Zrotation Xrotation Yrotation
      JOINT spine2
      {
        OFFSET 0 8.69014 0
        CHANNELS 3 Zrotation Xrotation Yrotation
        JOINT Neck
        {
          OFFSET 0 22.3112 1.06372
          CHANNELS 3 Zrotation Xrotation Yrotation
          JOINT Head
          {
            OFFSET 0 6.74081 0
            CHANNELS 3 Zrotation Xrotation Yrotation
            End Site
            {
              OFFSET 0 16.3165 -5.38097
            }
          }
        }
        JOINT RightShoulder
        {
          OFFSET -3.65916 9.38468 -0.509514
          CHANNELS 3 Zrotation Xrotation Yrotation
          JOINT RightArm
          {
            OFFSET 0 12.3089 0
            CHANNELS 3 Zrotation Xrotation Yrotation
            JOINT RightArmRoll
            {
              OFFSET 0 6.21375 0
              CHANNELS 3 Zrotation Xrotation Yrotation
              JOINT RightForeArm
              {
                OFFSET 0 18.0985 0
                CHANNELS 3 Zrotation Xrotation Yrotation
                JOINT RightForeArmRoll
                {
                  OFFSET 0 6.97279 0
                  CHANNELS 3 Zrotation Xrotation Yrotation
                  JOINT RightHand
                  {
                    OFFSET 0 13.9929 0
                    CHANNELS 3 Zrotation Xrotation Yrotation
                    End Site
                    {
                      OFFSET 0 0 0
                    }
                  }
                }
              }
            }
          }
        }
        JOINT LeftShoulder
        {
          OFFSET 3.65916 9.38468 -0.509514
          CHANNELS 3 Zrotation Xrotation Yrotation
          JOINT LeftArm
          {
            OFFSET 0 12.3089 0
            CHANNELS 3 Zrotation Xrotation Yrotation
            JOINT LeftArmRoll
            {
              OFFSET 0 6.21375 0
              CHANNELS 3 Zrotation Xrotation Yrotation
              JOINT LeftForeArm
              {
                OFFSET 0 18.0985 0
                CHANNELS 3 Zrotation Xrotation Yrotation
                JOINT LeftForeArmRoll
                {
                  OFFSET 0 6.97279 0
                  CHANNELS 3 Zrotation Xrotation Yrotation
                  JOINT LeftHand
                  {
                    OFFSET 0 13.9929 0
                    CHANNELS 3 Zrotation Xrotation Yrotation
                    End Site
                    {
                      OFFSET 0 0 0
                    }
                  }
                }
              }
            }
          }
        }
      }
    }
  }
  JOINT RightUpLeg
  {
    OFFSET -5.53515 -1.015 -0.851454
    CHANNELS 3 Zrotation Xrotation Yrotation
    JOINT RightUpLegRoll
    {
      OFFSET 0 16.4075 0
      CHANNELS 3 Zrotation Xrotation Yrotation
      JOINT RightLeg
      {
        OFFSET 0 -20.3181 0
        CHANNELS 3 Zrotation Xrotation Yrotation
        JOINT RightLegRoll
        {
          OFFSET 0 20.3846 0
          CHANNELS 3 Zrotation Xrotation Yrotation
          JOINT RightFoot
          {
            OFFSET 0 16.9668 0
            CHANNELS 3 Zrotation Xrotation Yrotation
            JOINT RightToeBase
            {
              OFFSET 0 14.1834 0
              CHANNELS 3 Zrotation Xrotation Yrotation
              End Site
              {
                OFFSET 0.0060118 6.86889 -0.791746
              }
            }
          }
        }
      }
    }
  }
  JOINT LeftUpLeg
  {
    OFFSET 5.53515 -1.015 -0.851454
    CHANNELS 3 Zrotation Xrotation Yrotation
    JOINT LeftUpLegRoll
    {
      OFFSET 0 16.4076 0
      CHANNELS 3 Zrotation Xrotation Yrotation
      JOINT LeftLeg
      {
        OFFSET 0 20.3181 0
        CHANNELS 3 Zrotation Xrotation Yrotation
        JOINT LeftLegRoll
        {
          OFFSET 0 20.5731 0
          CHANNELS 3 Zrotation Xrotation Yrotation
          JOINT LeftFoot
          {
            OFFSET 0 16.7783 0
            CHANNELS 3 Zrotation Xrotation Yrotation
            JOINT LeftToeBase
            {
              OFFSET 0 14.1834 0
              CHANNELS 3 Zrotation Xrotation Yrotation
              End Site
              {
                OFFSET -0.0269423 6.86889 -0.791746
              }
            }
          }
        }
      }
    }
  }
}
MOTION
Frames: 9
Frame Time: 0.00208333
47.3712 65.146 13.9429 -2.81677 35.6251 -4.13433 0.0756791 0.191842 0.0585818 0.151007 4.38655 0.109577 0.149892 6.03159 0.107262 -13.9149 -18.2749 -1.01218 7.23993 11.6632 -1.82018 43.4412 -7.00095 -3.6343 144.315 43.1571 -56.9631 -8.89769e-007 7.19169e-007 -2.48659e-006 31.268 32.9673 -9.61443 -6.6319e-006 -4.38828e-006 -3.00001 8.02884 -4.95147 0.697713 -68.0822 -4.2983 3.26715 -105.938 53.6295 31.4389 -9.14409e-015 1.59028e-015 -0 -30.0653 27.0691 7.04979 5.45675e-006 -8.90233e-006 3 -8.02887 -4.95131 -0.697628 -78.5305 79.1884 -101.565 -180 7.01626e-015 179.349 176.848 73.1795 -178.349 1.37764e-006 -5.90568e-006 1.51332 -38.1175 78.7872 38.5516 8.15431 25.4953 -3.49489 -20.4502 85.2764 -151.936 4.57705e-006 1.05463e-005 -0.765238 26.3679 -81.5791 24.1581 -4.18653e-007 -4.00229e-006 -2.66704 37.5669 79.6452 -40.2511 -8.16154 27.4664 0.566973 
47.3663 65.2102 14.0209 -2.82116 35.4916 -4.1096 0.07413 0.194426 0.0591606 0.14791 4.39172 0.110904 0.146777 6.03676 0.108641 -13.8425 -18.3022 -1.01984 7.20519 11.6782 -1.82137 43.5275 -6.97611 -3.61763 144.321 43.1708 -56.778 -8.8977e-007 7.19169e-007 -2.48659e-006 31.2207 32.7102 -9.51339 -6.6319e-006 -4.38828e-006 -3.00001 8.02884 -4.95147 0.697713 -68.1321 -4.28509 3.26348 -106.083 53.6215 31.2674 -4.77083e-015 -7.95139e-016 -0 -29.9546 26.7904 6.94473 5.45675e-006 -8.90233e-006 3 -8.02887 -4.95131 -0.697628 -79.8673 79.2444 -100.221 -180 7.01625e-015 179.347 176.892 73.1052 -178.387 1.37764e-006 -5.90568e-006 1.51507 -38.2635 78.8225 38.6908 8.15464 25.5001 -3.4948 -21.6843 85.5139 -150.729 4.57705e-006 1.05463e-005 -0.767901 26.1174 -81.5052 23.9162 -4.18653e-007 -4.00229e-006 -2.66643 37.6371 79.6635 -40.3258 -8.16122 27.4749 0.55542 
47.3642 65.2672 14.0948 -2.82565 35.3535 -4.08361 0.0724285 0.198146 0.059681 0.144502 4.39916 0.112086 0.143352 6.0442 0.109879 -13.7646 -18.3332 -1.02787 7.16474 11.6968 -1.82244 43.6153 -6.95368 -3.60312 144.331 43.1857 -56.595 -8.89769e-007 7.19169e-007 -2.48659e-006 31.172 32.4542 -9.41269 -6.6319e-006 -4.38828e-006 -3.00001 8.02884 -4.95147 0.697713 -68.1748 -4.27431 3.2606 -106.239 53.6121 31.1033 -6.36111e-015 3.97569e-015 -3.18055e-015 -29.8399 26.514 6.84046 5.45675e-006 -8.90233e-006 3 -8.02887 -4.95131 -0.697628 -81.2421 79.2967 -98.8394 -180 7.01625e-015 179.345 176.937 73.0303 -178.427 1.37764e-006 -5.90568e-006 1.51683 -38.4069 78.8569 38.8276 8.15503 25.5057 -3.49474 -23.0689 85.7549 -149.372 4.57705e-006 1.05463e-005 -0.77065 25.8718 -81.4287 23.6789 -4.18653e-007 -4.00229e-006 -2.66598 37.7109 79.6823 -40.404 -8.16093 27.4826 0.544836 
47.3577 65.334 14.1571 -2.83022 35.2115 -4.05647 0.0706089 0.2028 0.0601505 0.140851 4.40847 0.113141 0.139686 6.05351 0.110992 -13.6819 -18.3669 -1.03627 7.11953 11.7183 -1.82348 43.7041 -6.93322 -3.59037 144.343 43.2015 -56.4135 -8.89769e-007 7.19169e-007 -2.48659e-006 31.1219 32.1989 -9.31215 -6.6319e-006 -4.38828e-006 -3.00001 8.02884 -4.95147 0.697713 -68.2113 -4.26546 3.25832 -106.405 53.6013 30.9455 -8.74653e-015 8.74653e-015 -6.36111e-015 -29.7216 26.2401 6.73705 5.45675e-006 -8.90233e-006 3 -8.02887 -4.95131 -0.697628 -82.6509 79.3444 -97.4232 -180 7.01625e-015 179.342 176.983 72.9548 -178.467 1.37764e-006 -5.90568e-006 1.51859 -38.548 78.8904 38.9623 8.15545 25.5119 -3.4947 -24.632 85.9983 -147.837 4.57705e-006 1.05463e-005 -0.773469 25.6308 -81.35 23.4458 -4.18653e-007 -4.00229e-006 -2.66564 37.7877 79.7016 -40.4852 -8.16068 27.4897 0.535105 
47.3507 65.4022 14.2282 -2.83486 35.0663 -4.02833 0.0687054 0.208183 0.0605769 0.137028 4.41923 0.114087 0.135848 6.06428 0.111996 -13.5954 -18.4028 -1.04502 7.0705 11.7419 -1.82459 43.7937 -6.91426 -3.57898 144.357 43.2181 -56.2332 -8.89769e-007 7.19169e-007 -2.48659e-006 31.0701 31.9437 -9.21156 -6.6319e-006 -4.38828e-006 -3.00001 8.02884 -4.95147 0.697713 -68.2426 -4.25801 3.25645 -106.578 53.5889 30.7925 -2.64834e-031 -4.77083e-015 -3.18055e-015 -29.6002 25.9686 6.63461 5.45675e-006 -8.90233e-006 3 -8.02887 -4.95131 -0.697628 -84.0892 79.3871 -95.9769 -180 7.01624e-015 179.34 177.03 72.8788 -178.508 1.37764e-006 -5.90568e-006 1.52034 -38.6872 78.9232 39.0951 8.1559 25.5185 -3.4947 -26.4078 86.2424 -146.088 4.57705e-006 1.05463e-005 -0.776341 25.3942 -81.2692 23.2168 -4.18653e-007 -4.00229e-006 -2.6654 37.8668 79.7212 -40.5688 -8.16046 27.4962 0.526108 
47.3531 65.4523 14.2935 -2.83957 34.9186 -3.99927 0.0667524 0.214094 0.0609678 0.133101 4.43105 0.11494 0.131908 6.0761 0.112909 -13.506 -18.4398 -1.05413 7.01859 11.7667 -1.82585 43.8836 -6.89635 -3.56854 144.373 43.2352 -56.0536 -8.89769e-007 7.19169e-007 -2.48659e-006 31.0165 31.6883 -9.11076 -6.6319e-006 -4.38828e-006 -3.00001 8.02884 -4.95147 0.697713 -68.2699 -4.25147 3.2548 -106.757 53.5749 30.6431 7.95139e-015 -5.56597e-015 9.54166e-015 -29.4761 25.6998 6.53323 5.45675e-006 -8.90233e-006 3 -8.02887 -4.95131 -0.697628 -85.5525 79.4241 -94.5054 -180 7.01624e-015 179.337 177.077 72.802 -178.549 1.37764e-006 -5.90568e-006 1.52208 -38.8247 78.9554 39.2264 8.15639 25.5256 -3.49472 -28.4388 86.4857 -144.085 4.57705e-006 1.05463e-005 -0.779249 25.1614 -81.1865 22.9915 -4.18653e-007 -4.00229e-006 -2.66522 37.9479 79.741 -40.6543 -8.16027 27.5023 0.517727 
47.3477 65.5179 14.3646 -2.84433 34.7693 -3.96944 0.064784 0.220329 0.0613308 0.129141 4.44353 0.115718 0.127935 6.08858 0.113747 -13.4146 -18.4773 -1.0636 6.96473 11.7919 -1.82735 43.9733 -6.87904 -3.55865 144.39 43.2526 -55.8744 -8.89769e-007 7.19169e-007 -2.48659e-006 30.9611 31.4321 -9.00956 -6.6319e-006 -4.38828e-006 -3.00001 8.02884 -4.95147 0.697713 -68.2942 -4.24533 3.25318 -106.939 53.5591 30.4959 -3.18055e-015 -2.38542e-015 -9.54166e-015 -29.3496 25.4336 6.43301 5.45675e-006 -8.90233e-006 3 -8.02887 -4.95131 -0.697628 -87.0355 79.455 -93.014 -180 7.01624e-015 179.334 177.124 72.7246 -178.59 1.37764e-006 -5.90568e-006 1.5238 -38.9611 78.987 39.3565 8.15689 25.5329 -3.49476 -30.7762 86.7265 -141.774 4.57705e-006 1.05463e-005 -0.782177 24.9322 -81.1023 22.7694 -4.18653e-007 -4.00229e-006 -2.66507 38.0302 79.7609 -40.7411 -8.16009 27.5081 0.509846 
47.3315 65.5895 14.4349 -2.84915 34.619 -3.93892 0.0628346 0.226685 0.0616735 0.125216 4.45624 0.116439 0.123999 6.10129 0.114527 -13.322 -18.5143 -1.07343 6.90987 11.8169 -1.82919 44.0625 -6.86186 -3.54892 144.408 43.2701 -55.6952 -8.89769e-007 7.19169e-007 -2.48659e-006 30.9036 31.1747 -8.9078 -6.6319e-006 -4.38828e-006 -3.00001 8.02884 -4.95147 0.697713 -68.3165 -4.23907 3.25141 -107.122 53.5415 30.3495 -7.95139e-015 7.15625e-015 -0 -29.2213 25.1702 6.33404 5.45675e-006 -8.90233e-006 3 -8.02887 -4.95131 -0.697628 -88.5329 79.4794 -91.5081 -180 7.01623e-015 179.332 177.17 72.6466 -178.631 1.37764e-006 -5.90568e-006 1.5255 -39.0964 79.018 39.4855 8.1574 25.5404 -3.49483 -33.4832 86.9626 -139.094 4.57705e-006 1.05463e-005 -0.785109 24.7061 -81.0168 22.5504 -4.18653e-007 -4.00229e-006 -2.66493 38.1133 79.7809 -40.8286 -8.15992 27.5135 0.502346 
47.3253 65.6416 14.5042 -2.85403 34.4685 -3.90785 0.0609385 0.232959 0.0620037 0.121396 4.46879 0.117119 0.120168 6.11384 0.115264 -13.2292 -18.5502 -1.0836 6.85495 11.8408 -1.83146 44.1508 -6.84435 -3.53894 144.426 43.2874 -55.5155 -8.89769e-007 7.19169e-007 -2.48659e-006 30.844 30.9157 -8.80529 -6.6319e-006 -4.38828e-006 -3.00001 8.02884 -4.95147 0.697713 -68.338 -4.23218 3.24928 -107.304 53.5218 30.2026 2.38542e-015 -3.18055e-015 -9.54166e-015 -29.0916 24.9097 6.2364 5.45675e-006 -8.90233e-006 3 -8.02887 -4.95131 -0.697628 -90.039 79.497 -89.9934 -180 7.01623e-015 179.329 177.216 72.5678 -178.672 1.37764e-006 -5.90568e-006 1.52718 -39.2313 79.0487 39.614 8.15792 25.548 -3.49493 -36.6359 87.1916 -135.968 4.57705e-006 1.05463e-005 -0.788028 24.4827 -80.9301 22.3339 -4.18653e-007 -4.00229e-006 -2.66477 38.1966 79.8007 -40.9163 -8.15976 27.5187 0.49511 
